<svg xmlns="http://www.w3.org/2000/svg" viewBox="0 0 930 500" font-family="Inter, system-ui, sans-serif">
  <rect width="930" height="500" fill="#0F172A"/>
  <text x="465" y="38" text-anchor="middle" fill="#F8FAFC" font-size="22" font-weight="700">Deployment Migration — Two Sub-Paths</text>
  <text x="465" y="62" text-anchor="middle" fill="#94A3B8" font-size="13">Same 9-step runbook shape; different mechanics</text>
  <rect x="40" y="100" width="420" height="350" fill="#A78BFA" opacity="0.08" stroke="#A78BFA" stroke-width="1.5" rx="8"/>
  <text x="250" y="130" text-anchor="middle" fill="#DDD6FE" font-size="16" font-weight="700">A — Managed → SaaS (M2S)</text>
  <text x="250" y="148" text-anchor="middle" fill="#94A3B8" font-size="11">10 notebooks (9 steps + summary)</text>
  <rect x="60" y="170" width="180" height="28" fill="#1E293B" stroke="#A78BFA" rx="4"/>
  <text x="150" y="188" text-anchor="middle" fill="#F8FAFC" font-size="11">1. Discover</text>
  <rect x="260" y="170" width="180" height="28" fill="#1E293B" stroke="#A78BFA" rx="4"/>
  <text x="350" y="188" text-anchor="middle" fill="#F8FAFC" font-size="11">2. Strategize</text>
  <rect x="60" y="205" width="180" height="28" fill="#1E293B" stroke="#A78BFA" rx="4"/>
  <text x="150" y="223" text-anchor="middle" fill="#F8FAFC" font-size="11">3. Design</text>
  <rect x="260" y="205" width="180" height="28" fill="#1E293B" stroke="#A78BFA" rx="4"/>
  <text x="350" y="223" text-anchor="middle" fill="#F8FAFC" font-size="11">4. Prepare</text>
  <rect x="60" y="240" width="180" height="28" fill="#1E293B" stroke="#A78BFA" rx="4"/>
  <text x="150" y="258" text-anchor="middle" fill="#F8FAFC" font-size="11">5. Execute</text>
  <rect x="260" y="240" width="180" height="28" fill="#1E293B" stroke="#A78BFA" rx="4"/>
  <text x="350" y="258" text-anchor="middle" fill="#F8FAFC" font-size="11">6. Integrate</text>
  <rect x="60" y="275" width="180" height="28" fill="#1E293B" stroke="#A78BFA" rx="4"/>
  <text x="150" y="293" text-anchor="middle" fill="#F8FAFC" font-size="11">7. Expand</text>
  <rect x="260" y="275" width="180" height="28" fill="#1E293B" stroke="#A78BFA" rx="4"/>
  <text x="350" y="293" text-anchor="middle" fill="#F8FAFC" font-size="11">8. Enable</text>
  <rect x="60" y="310" width="180" height="28" fill="#1E293B" stroke="#A78BFA" rx="4"/>
  <text x="150" y="328" text-anchor="middle" fill="#F8FAFC" font-size="11">9. Optimize</text>
  <rect x="260" y="310" width="180" height="28" fill="#1E293B" stroke="#A78BFA" rx="4"/>
  <text x="350" y="328" text-anchor="middle" fill="#94A3B8" font-size="11">99. Best Practice</text>
  <text x="250" y="365" text-anchor="middle" fill="#FCD34D" font-size="12" font-weight="700">Foundation refresh in steps 3 + 7</text>
  <text x="250" y="385" text-anchor="middle" fill="#94A3B8" font-size="10">IAM, ORGNZ buckets, security_context, OpenPipeline</text>
  <text x="250" y="420" text-anchor="middle" fill="#94A3B8" font-size="11">Total: 4–8 months</text>
  <rect x="470" y="100" width="420" height="350" fill="#22D3EE" opacity="0.08" stroke="#22D3EE" stroke-width="1.5" rx="8"/>
  <text x="680" y="130" text-anchor="middle" fill="#A5F3FC" font-size="16" font-weight="700">B — SaaS → SaaS (S2S)</text>
  <text x="680" y="148" text-anchor="middle" fill="#94A3B8" font-size="11">11 notebooks (9 steps + scripts + summary)</text>
  <rect x="490" y="170" width="180" height="28" fill="#1E293B" stroke="#22D3EE" rx="4"/>
  <text x="580" y="188" text-anchor="middle" fill="#F8FAFC" font-size="11">1. Discover</text>
  <rect x="690" y="170" width="180" height="28" fill="#1E293B" stroke="#22D3EE" rx="4"/>
  <text x="780" y="188" text-anchor="middle" fill="#F8FAFC" font-size="11">2. Strategize</text>
  <rect x="490" y="205" width="180" height="28" fill="#1E293B" stroke="#22D3EE" rx="4"/>
  <text x="580" y="223" text-anchor="middle" fill="#F8FAFC" font-size="11">3. Design</text>
  <rect x="690" y="205" width="180" height="28" fill="#1E293B" stroke="#22D3EE" rx="4"/>
  <text x="780" y="223" text-anchor="middle" fill="#F8FAFC" font-size="11">4. Prepare</text>
  <rect x="490" y="240" width="180" height="28" fill="#1E293B" stroke="#22D3EE" rx="4"/>
  <text x="580" y="258" text-anchor="middle" fill="#F8FAFC" font-size="11">5. Execute</text>
  <rect x="690" y="240" width="180" height="28" fill="#1E293B" stroke="#22D3EE" rx="4"/>
  <text x="780" y="258" text-anchor="middle" fill="#F8FAFC" font-size="11">6. Integrate</text>
  <rect x="490" y="275" width="180" height="28" fill="#1E293B" stroke="#22D3EE" rx="4"/>
  <text x="580" y="293" text-anchor="middle" fill="#F8FAFC" font-size="11">7. Expand</text>
  <rect x="690" y="275" width="180" height="28" fill="#1E293B" stroke="#22D3EE" rx="4"/>
  <text x="780" y="293" text-anchor="middle" fill="#F8FAFC" font-size="11">8. Enable</text>
  <rect x="490" y="310" width="180" height="28" fill="#1E293B" stroke="#22D3EE" rx="4"/>
  <text x="580" y="328" text-anchor="middle" fill="#F8FAFC" font-size="11">9. Optimize</text>
  <rect x="690" y="310" width="180" height="28" fill="#1E293B" stroke="#22D3EE" rx="4"/>
  <text x="780" y="328" text-anchor="middle" fill="#94A3B8" font-size="11">10. Scripts / 99</text>
  <text x="680" y="365" text-anchor="middle" fill="#FCD34D" font-size="12" font-weight="700">Foundation refresh in steps 3 + 7</text>
  <text x="680" y="385" text-anchor="middle" fill="#94A3B8" font-size="10">Same Gen3 topics as M2S</text>
  <text x="680" y="420" text-anchor="middle" fill="#94A3B8" font-size="11">Total: 4–8 months</text>
  <text x="465" y="478" text-anchor="middle" fill="#64748B" font-size="11">Both sub-paths land on Gen3 SaaS — Foundation refresh checkpoints are identical</text>
</svg>
