<svg xmlns="http://www.w3.org/2000/svg" viewBox="0 0 600 450">
  <defs>
    <filter id="shadow" x="-2%" y="-2%" width="104%" height="104%">
      <feDropShadow dx="1" dy="2" stdDeviation="3" flood-opacity="0.15"/>
    </filter>
    <linearGradient id="redGrad" x1="0" y1="0" x2="0" y2="1">
      <stop offset="0%" stop-color="#ef4444"/>
      <stop offset="100%" stop-color="#dc2626"/>
    </linearGradient>
    <linearGradient id="blueGrad" x1="0" y1="0" x2="0" y2="1">
      <stop offset="0%" stop-color="#1496ff"/>
      <stop offset="100%" stop-color="#0a64bc"/>
    </linearGradient>
    <linearGradient id="orangeGrad" x1="0" y1="0" x2="0" y2="1">
      <stop offset="0%" stop-color="#f97316"/>
      <stop offset="100%" stop-color="#ea580c"/>
    </linearGradient>
    <linearGradient id="purpleGrad" x1="0" y1="0" x2="0" y2="1">
      <stop offset="0%" stop-color="#6366f1"/>
      <stop offset="100%" stop-color="#4f46e5"/>
    </linearGradient>
    <linearGradient id="greenGrad" x1="0" y1="0" x2="0" y2="1">
      <stop offset="0%" stop-color="#22c55e"/>
      <stop offset="100%" stop-color="#16a34a"/>
    </linearGradient>
    <marker id="arrowDown" markerWidth="10" markerHeight="10" refX="5" refY="10" orient="auto">
      <polygon points="0 0, 10 0, 5 10" fill="#64748b"/>
    </marker>
  </defs>

  <!-- Background -->
  <rect width="600" height="450" rx="12" ry="12" fill="#f8f9fa"/>

  <!-- Title -->
  <text x="300" y="35" text-anchor="middle" font-family="Arial, sans-serif" font-size="18" font-weight="bold" fill="#1e293b">Crash Reporting Flow</text>

  <!-- Step 1: App Crash -->
  <rect x="175" y="55" width="250" height="42" rx="8" ry="8" fill="url(#redGrad)" filter="url(#shadow)"/>
  <text x="300" y="74" text-anchor="middle" font-family="Arial, sans-serif" font-size="13" font-weight="bold" fill="#ffffff">App Crash</text>
  <text x="300" y="90" text-anchor="middle" font-family="Arial, sans-serif" font-size="10" fill="#fecaca">Unhandled exception or signal</text>

  <!-- Arrow 1-2 -->
  <line x1="300" y1="97" x2="300" y2="112" stroke="#64748b" stroke-width="2" marker-end="url(#arrowDown)"/>

  <!-- Step 2: SDK Captures -->
  <rect x="175" y="117" width="250" height="42" rx="8" ry="8" fill="url(#blueGrad)" filter="url(#shadow)"/>
  <text x="300" y="136" text-anchor="middle" font-family="Arial, sans-serif" font-size="13" font-weight="bold" fill="#ffffff">SDK Captures</text>
  <text x="300" y="152" text-anchor="middle" font-family="Arial, sans-serif" font-size="10" fill="#dbeafe">Stack trace, thread state, context</text>

  <!-- Arrow 2-3 -->
  <line x1="300" y1="159" x2="300" y2="174" stroke="#64748b" stroke-width="2" marker-end="url(#arrowDown)"/>

  <!-- Step 3: Stored Locally -->
  <rect x="175" y="179" width="250" height="42" rx="8" ry="8" fill="url(#orangeGrad)" filter="url(#shadow)"/>
  <text x="300" y="198" text-anchor="middle" font-family="Arial, sans-serif" font-size="13" font-weight="bold" fill="#ffffff">Stored Locally</text>
  <text x="300" y="214" text-anchor="middle" font-family="Arial, sans-serif" font-size="10" fill="#fff7ed">Persisted to device storage</text>

  <!-- Arrow 3-4 -->
  <line x1="300" y1="221" x2="300" y2="236" stroke="#64748b" stroke-width="2" marker-end="url(#arrowDown)"/>

  <!-- Step 4: Next App Launch -->
  <rect x="175" y="241" width="250" height="42" rx="8" ry="8" fill="url(#purpleGrad)" filter="url(#shadow)"/>
  <text x="300" y="260" text-anchor="middle" font-family="Arial, sans-serif" font-size="13" font-weight="bold" fill="#ffffff">Next App Launch</text>
  <text x="300" y="276" text-anchor="middle" font-family="Arial, sans-serif" font-size="10" fill="#e0e7ff">User reopens the app</text>

  <!-- Arrow 4-5 -->
  <line x1="300" y1="283" x2="300" y2="298" stroke="#64748b" stroke-width="2" marker-end="url(#arrowDown)"/>

  <!-- Step 5: Beacon Sent -->
  <rect x="175" y="303" width="250" height="42" rx="8" ry="8" fill="url(#blueGrad)" filter="url(#shadow)"/>
  <text x="300" y="322" text-anchor="middle" font-family="Arial, sans-serif" font-size="13" font-weight="bold" fill="#ffffff">Beacon Sent</text>
  <text x="300" y="338" text-anchor="middle" font-family="Arial, sans-serif" font-size="10" fill="#dbeafe">Crash data transmitted</text>

  <!-- Arrow 5-6 -->
  <line x1="300" y1="345" x2="300" y2="360" stroke="#64748b" stroke-width="2" marker-end="url(#arrowDown)"/>

  <!-- Step 6: Symbolication -->
  <rect x="175" y="365" width="250" height="42" rx="8" ry="8" fill="url(#greenGrad)" filter="url(#shadow)"/>
  <text x="300" y="384" text-anchor="middle" font-family="Arial, sans-serif" font-size="13" font-weight="bold" fill="#ffffff">Symbolication</text>
  <text x="300" y="400" text-anchor="middle" font-family="Arial, sans-serif" font-size="10" fill="#dcfce7">dSYM / ProGuard mapping applied</text>

  <!-- Step numbers on left -->
  <circle cx="160" cy="76" r="11" fill="#94a3b8"/>
  <text x="160" y="80" text-anchor="middle" font-family="Arial, sans-serif" font-size="11" font-weight="bold" fill="#ffffff">1</text>
  <circle cx="160" cy="138" r="11" fill="#94a3b8"/>
  <text x="160" y="142" text-anchor="middle" font-family="Arial, sans-serif" font-size="11" font-weight="bold" fill="#ffffff">2</text>
  <circle cx="160" cy="200" r="11" fill="#94a3b8"/>
  <text x="160" y="204" text-anchor="middle" font-family="Arial, sans-serif" font-size="11" font-weight="bold" fill="#ffffff">3</text>
  <circle cx="160" cy="262" r="11" fill="#94a3b8"/>
  <text x="160" y="266" text-anchor="middle" font-family="Arial, sans-serif" font-size="11" font-weight="bold" fill="#ffffff">4</text>
  <circle cx="160" cy="324" r="11" fill="#94a3b8"/>
  <text x="160" y="328" text-anchor="middle" font-family="Arial, sans-serif" font-size="11" font-weight="bold" fill="#ffffff">5</text>
  <circle cx="160" cy="386" r="11" fill="#94a3b8"/>
  <text x="160" y="390" text-anchor="middle" font-family="Arial, sans-serif" font-size="11" font-weight="bold" fill="#ffffff">6</text>

  <!-- Legend bar -->
  <rect x="0" y="418" width="600" height="32" rx="0" ry="0" fill="#e2e8f0"/>
  <rect x="0" y="438" width="600" height="12" rx="0" ry="12" fill="#e2e8f0"/>
  <text x="300" y="439" text-anchor="middle" font-family="Arial, sans-serif" font-size="11" fill="#475569">Crash data is captured at crash time and sent on the next app launch.</text>
</svg>